<svg xmlns="http://www.w3.org/2000/svg" viewBox="0 0 128 128" width="128" height="128">
  <!-- 背景 -->
  <rect x="0" y="0" width="128" height="128" rx="28" fill="#2d7a6b"/>
  <!-- 頭 -->
  <circle cx="64" cy="42" r="20" fill="#ffffff"/>
  <!-- 目 -->
  <circle cx="57" cy="40" r="3" fill="#2d7a6b"/>
  <circle cx="71" cy="40" r="3" fill="#2d7a6b"/>
  <!-- 口 -->
  <path d="M58 48 Q64 52 70 48" stroke="#2d7a6b" stroke-width="2.5" fill="none" stroke-linecap="round"/>
  <!-- 体 -->
  <rect x="44" y="64" width="40" height="34" rx="12" fill="#ffffff"/>
  <!-- 腕左 -->
  <rect x="26" y="66" width="16" height="10" rx="5" fill="#ffffff"/>
  <!-- 腕右 -->
  <rect x="86" y="66" width="16" height="10" rx="5" fill="#ffffff"/>
  <!-- 脚左 -->
  <rect x="46" y="99" width="14" height="26" rx="7" fill="#ffffff"/>
  <!-- 脚右 -->
  <rect x="68" y="99" width="14" height="26" rx="7" fill="#ffffff"/>
  <!-- ハート -->
  <path d="M56 74 C56 69 62 67 64 72 C66 67 72 69 72 74 C72 80 64 86 64 86 C64 86 56 80 56 74Z" fill="#e05a5a"/>
</svg>
